HIERARCHY
ROOT joint_Root
{
	OFFSET 0.0 0.0 0.0
	CHANNELS 6 Xposition Yposition Zposition Zrotation Xrotation Yrotation 
	JOINT Hips
	{
		OFFSET 4.5925 91.4895 -427.239
		CHANNELS 6 Xposition Yposition Zposition Zrotation Xrotation Yrotation 
		JOINT Spine
		{
			OFFSET 15.7357 0.0 0.0
			CHANNELS 6 Xposition Yposition Zposition Zrotation Xrotation Yrotation 
			JOINT Chest
			{
				OFFSET 8.98455 -0.406207 0.0
				CHANNELS 6 Xposition Yposition Zposition Zrotation Xrotation Yrotation 
				JOINT Neck
				{
					OFFSET 16.3773 0.0 0.0
					CHANNELS 6 Xposition Yposition Zposition Zrotation Xrotation Yrotation 
					JOINT Head
					{
						OFFSET 6.45672 0.0 0.0
						CHANNELS 6 Xposition Yposition Zposition Zrotation Xrotation Yrotation 
						End Site
						{
							OFFSET 0.0 0.0 0.0
						}
					}
				}
				JOINT Shoulder_L
				{
					OFFSET 12.9942 -0.242716 4.98039
					CHANNELS 6 Xposition Yposition Zposition Zrotation Xrotation Yrotation 
					JOINT UpperArm_L
					{
						OFFSET 5.34809 0.0 0.0
						CHANNELS 6 Xposition Yposition Zposition Zrotation Xrotation Yrotation 
						JOINT LowerArm_L
						{
							OFFSET 24.3286 1.87007e-05 0.0
							CHANNELS 6 Xposition Yposition Zposition Zrotation Xrotation Yrotation 
							JOINT Hand_L
							{
								OFFSET 22.2916 0.0 0.0
								CHANNELS 6 Xposition Yposition Zposition Zrotation Xrotation Yrotation 
								End Site
								{
									OFFSET 0.0 0.0 0.0
								}
							}
						}
					}
				}
				JOINT Shoulder_R
				{
					OFFSET 12.9945 -0.242716 -4.98039
					CHANNELS 6 Xposition Yposition Zposition Zrotation Xrotation Yrotation 
					JOINT UpperArm_R
					{
						OFFSET -5.34813 0.0 0.0
						CHANNELS 6 Xposition Yposition Zposition Zrotation Xrotation Yrotation 
						JOINT LowerArm_R
						{
							OFFSET -24.3289 0.000322201 0.0
							CHANNELS 6 Xposition Yposition Zposition Zrotation Xrotation Yrotation 
							JOINT Hand_R
							{
								OFFSET -22.2915 -0.000108084 0.0
								CHANNELS 6 Xposition Yposition Zposition Zrotation Xrotation Yrotation 
								End Site
								{
									OFFSET 0.0 0.0 0.0
								}
							}
						}
					}
				}
			}
		}
		JOINT UpperLeg_L
		{
			OFFSET -2.19248 -6.46944 0.0
			CHANNELS 6 Xposition Yposition Zposition Zrotation Xrotation Yrotation 
			JOINT LowerLeg_L
			{
				OFFSET 39.0811 0.0 -1.23785e-05
				CHANNELS 6 Xposition Yposition Zposition Zrotation Xrotation Yrotation 
				JOINT Foot_L
				{
					OFFSET 40.9854 0.0 -1.26872e-05
					CHANNELS 6 Xposition Yposition Zposition Zrotation Xrotation Yrotation 
					JOINT Toes_L
					{
						OFFSET 11.7543 0.0 0.0
						CHANNELS 6 Xposition Yposition Zposition Zrotation Xrotation Yrotation 
						End Site
						{
							OFFSET 0.0 0.0 0.0
						}
					}
				}
			}
		}
		JOINT UpperLeg_R
		{
			OFFSET -2.19251 6.46944 0.0
			CHANNELS 6 Xposition Yposition Zposition Zrotation Xrotation Yrotation 
			JOINT LowerLeg_R
			{
				OFFSET -39.0811 -0.00228153 -0.0401928
				CHANNELS 6 Xposition Yposition Zposition Zrotation Xrotation Yrotation 
				JOINT Foot_R
				{
					OFFSET -40.9854 0.0 0.0
					CHANNELS 6 Xposition Yposition Zposition Zrotation Xrotation Yrotation 
					JOINT Toes_R
					{
						OFFSET -11.7543 0.0 0.0
						CHANNELS 6 Xposition Yposition Zposition Zrotation Xrotation Yrotation 
						End Site
						{
							OFFSET 0.0 0.0 0.0
						}
					}
				}
			}
		}
	}
}
MOTION
Frames:	4
Frame Time:	0.0333333
0.000000 0.000000 0.000000 0.000000 0.000000 -0.000000 -0.706960 90.357800 -3.522320 89.059700 -2.588500 11.578800 15.735700 0.000005 -0.000001 89.439200 77.047500 -89.637500 8.984550 -0.406207 -0.000000 18.137400 -0.266694 -0.354914 16.377300 -0.000001 -0.000001 5.157410 -4.688930 2.107470 6.456720 -0.000001 -0.000000 -3.509320 -4.337890 0.311127 12.994200 -0.242716 4.980390 -91.306300 6.675780 -78.901900 5.348090 -0.000007 -0.000001 -54.192200 36.816300 -30.638500 24.328600 0.000019 0.000005 8.148440 19.978300 -22.737300 22.291600 -0.000001 0.000005 11.888800 5.166640 3.542220 12.994500 -0.242716 -4.980390 89.356800 10.870600 -86.593500 -5.348130 -0.000001 -0.000004 -54.918600 36.845800 -25.870200 -24.328900 0.000322 -0.000009 1.245220 3.413570 -20.070700 -22.291500 -0.000108 -0.000004 15.746700 5.411850 -3.326610 -2.192480 -6.469440 -0.000000 -174.029000 -11.913700 -2.536750 39.081100 -0.000007 -0.000012 -0.189310 0.277725 34.280500 40.985400 -0.000006 -0.000013 0.439721 5.661210 -69.922000 11.754300 -0.000000 0.000003 -0.000092 -0.000962 -16.614500 -2.192510 6.469440 -0.000001 174.945000 19.932400 178.959000 -39.081100 -0.002282 -0.040193 -0.167137 0.258685 33.378600 -40.985400 0.000008 0.000006 4.466870 11.661100 -70.608200 -11.754300 -0.000006 -0.000006 -0.003284 -0.043778 -18.353600
0.000000 0.000000 0.000000 0.000000 0.000000 -0.000000 -0.714435 90.356300 -3.527050 89.050700 -2.606450 11.585700 15.735700 0.000005 -0.000001 89.444700 77.021400 -89.623600 8.984550 -0.406207 -0.000000 18.189600 -0.263033 -0.316311 16.377300 -0.000001 -0.000001 5.057300 -4.655140 2.115690 6.456720 -0.000001 -0.000000 -3.683520 -4.304980 0.280681 12.994200 -0.242716 4.980390 -91.324000 6.729510 -78.843000 5.348090 -0.000007 -0.000001 -54.093100 36.215600 -30.684200 24.328600 0.000019 0.000005 8.458800 19.931600 -23.569000 22.291600 -0.000001 0.000005 11.852900 5.168700 3.492220 12.994500 -0.242716 -4.980390 89.354100 10.852800 -86.573600 -5.348130 -0.000001 -0.000004 -54.856600 36.864100 -25.957800 -24.328900 0.000322 -0.000009 1.238480 3.386420 -20.117900 -22.291500 -0.000108 -0.000004 15.767300 5.411980 -3.330980 -2.192480 -6.469440 -0.000000 -174.023000 -11.894400 -2.546540 39.081100 -0.000007 -0.000012 -0.186830 0.273940 34.294800 40.985400 -0.000006 -0.000013 0.428952 5.633410 -69.919100 11.754300 -0.000000 0.000003 -0.000089 -0.000929 -16.613300 -2.192510 6.469440 -0.000001 174.970000 19.914800 178.947000 -39.081100 -0.002282 -0.040193 -0.165541 0.256121 33.393100 -40.985400 0.000008 0.000006 4.523770 11.634900 -70.619200 -11.754300 -0.000006 -0.000006 -0.003173 -0.042546 -18.303400
0.000000 0.000000 0.000000 0.000000 0.000000 -0.000000 -0.721837 90.359200 -3.550110 89.073200 -2.594840 11.560500 15.735700 0.000005 -0.000001 89.392900 77.002600 -89.569400 8.984550 -0.406207 -0.000000 18.227000 -0.286303 -0.307806 16.377300 -0.000001 -0.000001 4.957950 -4.634840 2.130720 6.456720 -0.000001 -0.000000 -3.930400 -4.283700 0.307914 12.994200 -0.242716 4.980390 -91.367600 6.822710 -78.637400 5.348090 -0.000007 -0.000001 -54.191100 35.003600 -30.600000 24.328600 0.000019 0.000005 8.972170 19.894000 -24.890700 22.291600 -0.000001 0.000005 11.891900 5.167800 3.513920 12.994500 -0.242716 -4.980390 89.343400 10.858500 -86.518600 -5.348130 -0.000001 -0.000004 -54.800300 36.879800 -26.043800 -24.328900 0.000322 -0.000009 1.228560 3.347260 -20.184200 -22.291500 -0.000108 -0.000004 15.757300 5.412850 -3.359700 -2.192480 -6.469440 -0.000000 -174.038000 -11.907200 -2.583190 39.081100 -0.000007 -0.000012 -0.190045 0.278874 34.273700 40.985400 -0.000006 -0.000013 0.428270 5.667000 -69.886600 11.754300 -0.000000 0.000003 -0.000085 -0.000898 -16.612100 -2.192510 6.469440 -0.000001 174.960000 19.931700 178.907000 -39.081100 -0.002282 -0.040193 -0.167591 0.259323 33.383700 -40.985400 0.000008 0.000006 4.436080 11.661200 -70.577900 -11.754300 -0.000006 -0.000006 -0.003100 -0.041731 -18.270300
0.000000 0.000000 0.000000 0.000000 0.000000 -0.000000 -0.733625 90.359700 -3.565380 89.065100 -2.597940 11.539900 15.735700 0.000005 -0.000001 89.497500 76.987700 -89.657300 8.984550 -0.406207 -0.000000 18.257400 -0.238520 -0.282097 16.377300 -0.000001 -0.000001 4.941120 -4.613560 2.156250 6.456720 -0.000001 -0.000000 -4.212950 -4.313410 0.332110 12.994200 -0.242716 4.980390 -91.430500 6.977560 -78.384300 5.348090 -0.000007 -0.000001 -53.919100 33.668300 -30.723300 24.328600 0.000019 0.000005 9.449550 19.352900 -26.667800 22.291600 -0.000001 0.000005 11.833200 5.164560 3.592870 12.994500 -0.242716 -4.980390 89.332700 10.857400 -86.461500 -5.348130 -0.000001 -0.000004 -54.788300 36.864000 -26.035000 -24.328900 0.000322 -0.000009 1.212130 3.287040 -20.271300 -22.291500 -0.000108 -0.000004 15.813400 5.413350 -3.376260 -2.192480 -6.469440 -0.000000 -174.033000 -11.919500 -2.612740 39.081100 -0.000007 -0.000012 -0.186518 0.273646 34.278900 40.985400 -0.000006 -0.000013 0.425769 5.665640 -69.881600 11.754300 -0.000000 0.000003 -0.000081 -0.000857 -16.610600 -2.192510 6.469440 -0.000001 174.989000 19.943600 178.875000 -39.081100 -0.002282 -0.040193 -0.167000 0.258375 33.388900 -40.985400 0.000008 0.000006 4.498950 11.659800 -70.588100 -11.754300 -0.000006 -0.000006 -0.003229 -0.043168 -18.328700
